<?xml version="1.0" encoding="UTF-8"?>
<svg id="_레이어_2" data-name="레이어 2" xmlns="http://www.w3.org/2000/svg" viewBox="0 0 40 40">
  <defs>
    <style>
      .cls-1 {
        fill: #00a0e9;
      }

      .cls-2 {
        fill: #231815;
      }
    </style>
  </defs>
  <g id="_레이어_1-2" data-name="레이어 1">
    <g>
      <circle class="cls-1" cx="20" cy="20" r="20"/>
      <path class="cls-2" d="m31.13,27.87c-.25-.39-.68-.61-1.14-.63-6.95-.23-12.68-5.08-12.95-11.21-.1-2.16.51-4.22,1.62-6.02.29-.47.32-1.06.02-1.52l-.05-.07c-.5-.62-1.28-.8-1.96-.39-6.05,3.63-9.63,11.93-7.36,17.03,3.37,7.58,12.29,8.64,20.75,5.42.22-.08.55-.23.72-.39.59-.53.7-.94.54-1.79l-.19-.43Z"/>
    </g>
  </g>
</svg>