<?xml version="1.0" encoding="UTF-8"?>
<svg id="_레이어_2" data-name="레이어 2" xmlns="http://www.w3.org/2000/svg" viewBox="0 0 40 40">
  <defs>
    <style>
      .cls-1 {
        fill: #00a63d;
      }

      .cls-2 {
        fill: #231815;
      }
    </style>
  </defs>
  <g id="_레이어_1-2" data-name="레이어 1">
    <g>
      <circle class="cls-1" cx="20" cy="20" r="20"/>
      <path class="cls-2" d="m30.47,11.03h0c.23-.84-.13-1.71-.86-2.18-5.25-3.36-12.07-3.59-16.27-.05-5.79,4.88-4.64,14.57.59,22.93.36.58.64.98,1.33,1.58.78.68,1.7.39,1.99.22.51-.31.49-.92.23-1.69-2.6-7.76-.05-15.95,6.29-18.39,1.74-.67,3.19-1.04,4.79-1.02.89.01,1.69-.56,1.92-1.42Z"/>
    </g>
  </g>
</svg>