<?xml version="1.0" encoding="UTF-8"?>
<svg id="_레이어_2" data-name="레이어 2" xmlns="http://www.w3.org/2000/svg" viewBox="0 0 40 40">
  <defs>
    <style>
      .cls-1 {
        fill: #844195;
      }

      .cls-2 {
        fill: #231815;
      }
    </style>
  </defs>
  <g id="_레이어_1-2" data-name="레이어 1">
    <g>
      <circle class="cls-1" cx="20" cy="20" r="20"/>
      <circle class="cls-2" cx="24.5" cy="19.33" r="4.5"/>
      <path class="cls-2" d="m32.86,26.49c-.46-.7-1.36-.92-2.1-.54-.37.19-.75.37-1.14.53-6.01,2.49-12.46.67-14.42-4.05-1.72-4.17.64-9.2,5.34-12.03.7-.42.91-1.33.46-2.01h0c-.29-.45-.82-.71-1.35-.65-7.23.89-12.77,6.01-12.77,12.19,0,6.81,6.72,12.34,15.02,12.34,4.16,0,7.93-1.4,10.65-3.65.63-.53.77-1.45.32-2.14h0Z"/>
    </g>
  </g>
</svg>