<?xml version="1.0" encoding="UTF-8"?>
<svg id="_레이어_2" data-name="레이어 2" xmlns="http://www.w3.org/2000/svg" viewBox="0 0 157.12 114.87">
  <defs>
    <style>
      .cls-1 {
        fill: #f7f8f8;
      }

      .cls-2 {
        fill: #c9caca;
      }

      .cls-3 {
        fill: #7ecef4;
      }

      .cls-4 {
        fill: #b01e23;
      }

      .cls-5 {
        font-family: MyriadConceptRoman-Regular, 'Myriad Variable Concept';
        font-size: 26px;
        font-variation-settings: 'wght' 400, 'wdth' 100;
      }

      .cls-5, .cls-6 {
        fill: #231815;
      }

      .cls-7 {
        fill: #15293e;
      }
    </style>
  </defs>
  <g id="_레이어_1-2" data-name="레이어 1">
    <g>
      <g>
        <rect class="cls-2" width="157.12" height="114.87"/>
        <rect class="cls-7" width="157.12" height="15.48"/>
        <rect class="cls-4" x="141.64" width="15.48" height="15.48"/>
      </g>
      <rect class="cls-1" x="62.05" y="64.75" width="79.6" height="36.11" rx="17.39" ry="17.39"/>
      <text class="cls-5" transform="translate(101.85 91.72)"><tspan x="0" y="0">12</tspan></text>
      <g>
        <circle class="cls-3" cx="81.36" cy="82.81" r="15"/>
        <path class="cls-6" d="m87.3,88.79c-.18-.27-.48-.43-.8-.44-4.89-.16-8.92-3.57-9.11-7.89-.07-1.52.36-2.97,1.14-4.23.2-.33.22-.74.01-1.07l-.03-.05c-.35-.44-.9-.56-1.38-.27-4.25,2.56-6.78,8.39-5.18,11.98,2.37,5.33,8.65,6.08,14.6,3.81.15-.06.38-.16.51-.27.42-.38.5-.66.38-1.26l-.13-.3Z"/>
      </g>
    </g>
  </g>
</svg>