<?xml version="1.0" encoding="UTF-8"?>
<svg id="_레이어_2" data-name="레이어 2" xmlns="http://www.w3.org/2000/svg" viewBox="0 0 125.29 78.5">
  <defs>
    <style>
      .cls-1 {
        font-family: MyriadConceptRoman-Regular, 'Myriad Variable Concept';
        font-size: 14px;
        font-variation-settings: 'wght' 400, 'wdth' 100;
      }

      .cls-1, .cls-2 {
        fill: #231815;
      }

      .cls-3 {
        fill: #f7f8f8;
      }

      .cls-3, .cls-4 {
        stroke: #898989;
        stroke-miterlimit: 10;
        stroke-width: .5px;
      }

      .cls-5 {
        fill: #7ecef4;
      }

      .cls-6 {
        fill: #898989;
      }

      .cls-4 {
        fill: #dcdddd;
      }
    </style>
  </defs>
  <g id="_레이어_1-2" data-name="레이어 1">
    <g>
      <rect class="cls-3" x=".25" y=".25" width="124.79" height="78"/>
      <rect class="cls-4" x=".25" y=".25" width="124.79" height="10.51"/>
      <g>
        <rect class="cls-6" x="114.85" y="5.39" width="6.36" height=".45" rx=".23" ry=".23" transform="translate(197.52 93.06) rotate(-135)"/>
        <rect class="cls-6" x="114.85" y="5.39" width="6.36" height=".45" rx=".23" ry=".23" transform="translate(30.6 85.11) rotate(-45)"/>
      </g>
      <g>
        <path class="cls-6" d="m111.82,2.87h-4.91c-.2,0-.37.17-.37.37v4.53c0,.2.16.37.37.37h4.91c.2,0,.37-.17.37-.37V3.24c0-.2-.16-.37-.37-.37Zm-.12,4.45c0,.2-.16.37-.37.37h-3.94c-.2,0-.37-.17-.37-.37v-3.63c0-.2.16-.37.37-.37h3.94c.2,0,.37.17.37.37v3.63Z"/>
        <path class="cls-6" d="m111.82,2.87h-2.69c-.2,0-.37.17-.37.37v2.46c0,.2.16.37.37.37h2.69c.2,0,.37-.17.37-.37v-2.46c0-.2-.16-.37-.37-.37Zm-.07,2.38c0,.2-.16.37-.37.37h-1.72c-.2,0-.37-.17-.37-.37v-1.56c0-.2.16-.37.37-.37h1.72c.2,0,.37.17.37.37v1.56Z"/>
      </g>
      <rect class="cls-3" x="69.17" y="49.78" width="48.86" height="22.17" rx="11.08" ry="11.08"/>
      <text class="cls-1" transform="translate(94.42 64.69)"><tspan x="0" y="0">12</tspan></text>
      <g>
        <circle class="cls-5" cx="81.02" cy="60.86" r="9.21"/>
        <path class="cls-2" d="m84.67,64.53c-.11-.17-.29-.26-.49-.27-3-.1-5.48-2.19-5.59-4.84-.04-.93.22-1.82.7-2.6.13-.2.14-.46,0-.66l-.02-.03c-.21-.27-.55-.35-.85-.17-2.61,1.57-4.16,5.15-3.18,7.35,1.46,3.27,5.31,3.73,8.96,2.34.09-.04.24-.1.31-.17.26-.23.3-.41.23-.77l-.08-.19Z"/>
      </g>
    </g>
  </g>
</svg>