<?xml version="1.0" encoding="UTF-8"?>
<svg id="_레이어_2" data-name="레이어 2" xmlns="http://www.w3.org/2000/svg" viewBox="0 0 157.12 114.87">
  <defs>
    <style>
      .cls-1, .cls-2 {
        fill: #fff;
      }

      .cls-3 {
        fill: none;
        stroke: #231815;
      }

      .cls-3, .cls-2 {
        stroke-miterlimit: 10;
      }

      .cls-4 {
        fill: #f7f8f8;
      }

      .cls-5 {
        fill: #c9caca;
      }

      .cls-6 {
        fill: #dcdddd;
      }

      .cls-7 {
        fill: #b01e23;
      }

      .cls-8 {
        fill: #15293e;
      }

      .cls-2 {
        stroke: #dcdddd;
      }

      .cls-9 {
        font-family: TTYeonnalligiB, '210 Yeonnalligi';
        font-size: 9px;
      }

      .cls-9, .cls-10 {
        fill: #231815;
      }
    </style>
  </defs>
  <g id="_레이어_1-2" data-name="레이어 1">
    <g>
      <g>
        <rect class="cls-5" width="157.12" height="114.87"/>
        <rect class="cls-8" width="157.12" height="15.48"/>
        <rect class="cls-7" x="141.64" width="15.48" height="15.48"/>
      </g>
      <rect class="cls-6" x="45.03" y="13.61" width="56.62" height="73.94"/>
      <rect class="cls-4" x="39.51" y="8.71" width="56.62" height="73.94"/>
      <polygon class="cls-6" points="56.14 100.26 42.45 90.57 42.64 107.35 46.8 105.17 49.78 110.85 54.97 108.13 51.98 102.45 56.14 100.26"/>
      <polygon class="cls-1" points="53.35 95.47 39.51 85.51 39.85 102.55 44.01 100.37 47.05 106.17 52.23 103.45 49.19 97.65 53.35 95.47"/>
      <rect class="cls-2" x="28.18" y="50.58" width="109.98" height="13.71"/>
      <g>
        <circle class="cls-3" cx="34.93" cy="57.43" r="4.79"/>
        <path class="cls-10" d="m36.83,59.34c-.06-.09-.15-.14-.26-.14-1.56-.05-2.85-1.14-2.91-2.52-.02-.49.11-.95.36-1.35.07-.11.07-.24,0-.34v-.02c-.12-.14-.3-.18-.45-.09-1.36.82-2.16,2.68-1.65,3.82.76,1.7,2.76,1.94,4.66,1.22.05-.02.12-.05.16-.09.13-.12.16-.21.12-.4l-.04-.1Z"/>
      </g>
      <text class="cls-9" transform="translate(42.45 59.03)"><tspan x="0" y="0">comment on corner</tspan></text>
    </g>
  </g>
</svg>