<?xml version="1.0" encoding="UTF-8"?>
<svg id="_레이어_2" data-name="레이어 2" xmlns="http://www.w3.org/2000/svg" viewBox="0 0 157.12 114.87">
  <defs>
    <style>
      .cls-1 {
        fill: #fff;
      }

      .cls-2 {
        fill: none;
        stroke: #231815;
        stroke-miterlimit: 10;
      }

      .cls-3 {
        fill: #c9caca;
      }

      .cls-4 {
        fill: #dcdddd;
      }

      .cls-5 {
        fill: #b01e23;
      }

      .cls-6 {
        fill: #15293e;
      }

      .cls-7 {
        fill: #231815;
      }
    </style>
  </defs>
  <g id="_레이어_1-2" data-name="레이어 1">
    <g>
      <g>
        <rect class="cls-3" width="157.12" height="114.87"/>
        <rect class="cls-6" width="157.12" height="15.48"/>
        <rect class="cls-5" x="141.64" width="15.48" height="15.48"/>
      </g>
      <rect class="cls-4" x="71.85" y="15.48" width="78.56" height="99.39"/>
      <rect class="cls-1" x="78.56" y="15.48" width="78.56" height="99.39"/>
      <g>
        <circle class="cls-2" cx="117.84" cy="64.1" r="15"/>
        <path class="cls-7" d="m123.79,70.09c-.18-.27-.48-.43-.8-.44-4.89-.16-8.92-3.57-9.11-7.89-.07-1.52.36-2.97,1.14-4.23.2-.33.22-.74.01-1.07l-.03-.05c-.35-.44-.9-.56-1.38-.27-4.25,2.56-6.78,8.39-5.18,11.98,2.37,5.33,8.65,6.08,14.6,3.81.15-.06.38-.16.51-.27.42-.38.5-.66.38-1.26l-.13-.3Z"/>
      </g>
    </g>
  </g>
</svg>