<?xml version="1.0" encoding="UTF-8"?>
<svg id="_레이어_2" data-name="레이어 2" xmlns="http://www.w3.org/2000/svg" viewBox="0 0 125.29 78.5">
  <defs>
    <style>
      .cls-1 {
        fill: #aad6a6;
      }

      .cls-1, .cls-2, .cls-3, .cls-4 {
        stroke: #898989;
        stroke-miterlimit: 10;
        stroke-width: .5px;
      }

      .cls-2 {
        fill: #f7f8f8;
      }

      .cls-5 {
        fill: #898989;
      }

      .cls-3 {
        fill: #fff;
      }

      .cls-4 {
        fill: #dcdddd;
      }

      .cls-6 {
        fill: #231815;
        font-family: TTYeonnalligiB, '210 Yeonnalligi';
        font-size: 6.19px;
      }
    </style>
  </defs>
  <g id="_레이어_1-2" data-name="레이어 1">
    <g>
      <rect class="cls-2" x=".25" y=".25" width="124.79" height="78"/>
      <polygon class="cls-3" points="45.12 68.54 35.6 61.69 35.83 73.41 38.69 71.91 40.79 75.9 44.35 74.03 42.26 70.04 45.12 68.54"/>
      <rect class="cls-4" x=".25" y=".25" width="124.79" height="10.51"/>
      <g>
        <rect class="cls-5" x="114.85" y="5.39" width="6.36" height=".45" rx=".23" ry=".23" transform="translate(197.52 93.06) rotate(-135)"/>
        <rect class="cls-5" x="114.85" y="5.39" width="6.36" height=".45" rx=".23" ry=".23" transform="translate(30.6 85.11) rotate(-45)"/>
      </g>
      <g>
        <path class="cls-5" d="m111.82,2.87h-4.91c-.2,0-.37.17-.37.37v4.53c0,.2.16.37.37.37h4.91c.2,0,.37-.17.37-.37V3.24c0-.2-.16-.37-.37-.37Zm-.12,4.45c0,.2-.16.37-.37.37h-3.94c-.2,0-.37-.17-.37-.37v-3.63c0-.2.16-.37.37-.37h3.94c.2,0,.37.17.37.37v3.63Z"/>
        <path class="cls-5" d="m111.82,2.87h-2.69c-.2,0-.37.17-.37.37v2.46c0,.2.16.37.37.37h2.69c.2,0,.37-.17.37-.37v-2.46c0-.2-.16-.37-.37-.37Zm-.07,2.38c0,.2-.16.37-.37.37h-1.72c-.2,0-.37-.17-.37-.37v-1.56c0-.2.16-.37.37-.37h1.72c.2,0,.37.17.37.37v1.56Z"/>
      </g>
      <rect class="cls-4" x="36.29" y="6.8" width="38.95" height="50.86"/>
      <rect class="cls-1" x="28.5" y="32.45" width="78.53" height="12.61"/>
      <text class="cls-6" transform="translate(40.29 39.83)"><tspan x="0" y="0">comment on corner</tspan></text>
    </g>
  </g>
</svg>