<?xml version="1.0" encoding="UTF-8"?>
<svg id="_레이어_2" data-name="레이어 2" xmlns="http://www.w3.org/2000/svg" viewBox="0 0 157.12 114.87">
  <defs>
    <style>
      .cls-1 {
        fill: #fff;
      }

      .cls-2 {
        fill: none;
        stroke: #231815;
        stroke-miterlimit: 10;
      }

      .cls-3 {
        fill: #f7f8f8;
      }

      .cls-4 {
        fill: #dcdddd;
      }

      .cls-5 {
        fill: #898989;
      }

      .cls-6 {
        fill: #231815;
      }
    </style>
  </defs>
  <g id="_레이어_1-2" data-name="레이어 1">
    <g>
      <g>
        <g>
          <rect class="cls-3" width="157.12" height="114.87"/>
          <rect class="cls-4" width="157.12" height="15.48"/>
        </g>
        <g>
          <rect class="cls-5" x="143.75" y="7.41" width="9.25" height=".66" rx=".33" ry=".33" transform="translate(247.82 118.13) rotate(-135)"/>
          <rect class="cls-5" x="143.75" y="7.41" width="9.25" height=".66" rx=".33" ry=".33" transform="translate(37.99 107.19) rotate(-45)"/>
        </g>
        <g>
          <path class="cls-5" d="m139.34,3.74h-7.14c-.29,0-.53.24-.53.54v6.59c0,.3.24.54.53.54h7.14c.29,0,.53-.24.53-.54v-6.59c0-.3-.24-.54-.53-.54Zm-.17,6.47c0,.3-.24.54-.53.54h-5.73c-.29,0-.53-.24-.53-.54v-5.28c0-.3.24-.54.53-.54h5.73c.29,0,.53.24.53.54v5.28Z"/>
          <path class="cls-5" d="m139.34,3.74h-3.91c-.29,0-.53.24-.53.54v3.58c0,.3.24.54.53.54h3.91c.29,0,.53-.24.53-.54v-3.58c0-.3-.24-.54-.53-.54Zm-.1,3.46c0,.3-.24.54-.53.54h-2.51c-.29,0-.53-.24-.53-.54v-2.26c0-.3.24-.54.53-.54h2.51c.29,0,.53.24.53.54v2.26Z"/>
        </g>
      </g>
      <rect class="cls-5" x="73.85" y="15.48" width="78.56" height="99.39"/>
      <rect class="cls-1" x="78.56" y="15.48" width="78.56" height="99.39"/>
      <g>
        <circle class="cls-2" cx="97.76" cy="32.57" r="10.1"/>
        <path class="cls-6" d="m101.76,36.6c-.12-.18-.32-.29-.54-.3-3.29-.11-6.01-2.41-6.13-5.31-.05-1.02.24-2,.77-2.85.14-.22.15-.5,0-.72l-.02-.03c-.24-.29-.61-.38-.93-.18-2.86,1.72-4.56,5.65-3.49,8.06,1.6,3.59,5.82,4.09,9.82,2.57.1-.04.26-.11.34-.18.28-.25.33-.44.26-.85l-.09-.2Z"/>
      </g>
      <rect class="cls-4" x="87.47" y="52.62" width="20.58" height="20.58" rx="10.29" ry="10.29"/>
      <rect class="cls-4" x="115.76" y="52.79" width="32.46" height="7.53" rx="3.77" ry="3.77"/>
      <rect class="cls-4" x="115.76" y="65.03" width="32.46" height="7.53" rx="3.77" ry="3.77"/>
      <rect class="cls-4" x="87.47" y="81.77" width="20.58" height="20.58" rx="10.29" ry="10.29"/>
      <rect class="cls-4" x="115.76" y="81.93" width="32.46" height="7.53" rx="3.77" ry="3.77"/>
      <rect class="cls-4" x="115.76" y="94.18" width="32.46" height="7.53" rx="3.77" ry="3.77"/>
    </g>
  </g>
</svg>