<?xml version="1.0" encoding="UTF-8"?>
<svg id="_레이어_2" data-name="레이어 2" xmlns="http://www.w3.org/2000/svg" viewBox="0 0 157.12 114.87">
  <defs>
    <style>
      .cls-1 {
        fill: none;
        stroke: #231815;
      }

      .cls-1, .cls-2, .cls-3 {
        stroke-miterlimit: 10;
      }

      .cls-4, .cls-2 {
        fill: #f7f8f8;
      }

      .cls-5 {
        fill: #dcdddd;
      }

      .cls-2, .cls-3 {
        stroke: #898989;
        stroke-width: 3px;
      }

      .cls-6 {
        fill: #898989;
      }

      .cls-3 {
        fill: #fff;
      }

      .cls-7 {
        font-family: TTYeonnalligiB, '210 Yeonnalligi';
        font-size: 9px;
      }

      .cls-7, .cls-8 {
        fill: #231815;
      }
    </style>
  </defs>
  <g id="_레이어_1-2" data-name="레이어 1">
    <g>
      <g>
        <g>
          <rect class="cls-4" width="157.12" height="114.87"/>
          <rect class="cls-5" width="157.12" height="15.48"/>
        </g>
        <g>
          <rect class="cls-6" x="143.75" y="7.41" width="9.25" height=".66" rx=".33" ry=".33" transform="translate(247.82 118.13) rotate(-135)"/>
          <rect class="cls-6" x="143.75" y="7.41" width="9.25" height=".66" rx=".33" ry=".33" transform="translate(37.99 107.19) rotate(-45)"/>
        </g>
        <g>
          <path class="cls-6" d="m139.34,3.74h-7.14c-.29,0-.53.24-.53.54v6.59c0,.3.24.54.53.54h7.14c.29,0,.53-.24.53-.54v-6.59c0-.3-.24-.54-.53-.54Zm-.17,6.47c0,.3-.24.54-.53.54h-5.73c-.29,0-.53-.24-.53-.54v-5.28c0-.3.24-.54.53-.54h5.73c.29,0,.53.24.53.54v5.28Z"/>
          <path class="cls-6" d="m139.34,3.74h-3.91c-.29,0-.53.24-.53.54v3.58c0,.3.24.54.53.54h3.91c.29,0,.53-.24.53-.54v-3.58c0-.3-.24-.54-.53-.54Zm-.1,3.46c0,.3-.24.54-.53.54h-2.51c-.29,0-.53-.24-.53-.54v-2.26c0-.3.24-.54.53-.54h2.51c.29,0,.53.24.53.54v2.26Z"/>
        </g>
      </g>
      <rect class="cls-2" x="39.51" y="8.71" width="56.62" height="73.94" rx="2.49" ry="2.49"/>
      <polygon class="cls-6" points="52.35 98.47 38.51 88.51 38.85 105.55 43.01 103.37 46.05 109.17 51.23 106.45 48.19 100.65 52.35 98.47"/>
      <rect class="cls-3" x="28.18" y="45.96" width="113.46" height="18.33" rx="2.57" ry="2.57"/>
      <g>
        <circle class="cls-1" cx="36.41" cy="55.98" r="4.79"/>
        <path class="cls-8" d="m37.87,58.24c-.04-.1-.12-.17-.22-.19-1.52-.38-2.55-1.71-2.32-3.07.08-.48.31-.9.64-1.25.09-.09.12-.22.07-.33v-.02c-.09-.16-.25-.24-.42-.18-1.5.52-2.67,2.17-2.41,3.4.39,1.82,2.3,2.47,4.31,2.16.05,0,.13-.03.18-.05.15-.09.2-.17.2-.37l-.02-.1Z"/>
      </g>
      <text class="cls-7" transform="translate(45.78 56.72)"><tspan x="0" y="0">comment on corner</tspan></text>
    </g>
  </g>
</svg>