<?xml version="1.0" encoding="UTF-8"?>
<svg id="_레이어_2" data-name="레이어 2" xmlns="http://www.w3.org/2000/svg" viewBox="0 0 157.12 114.87">
  <defs>
    <style>
      .cls-1, .cls-2 {
        fill: #f7f8f8;
      }

      .cls-3 {
        fill: #dcdddd;
      }

      .cls-4 {
        fill: #7ecef4;
      }

      .cls-2 {
        stroke: #898989;
        stroke-miterlimit: 10;
        stroke-width: 3px;
      }

      .cls-5 {
        font-family: MyriadConceptRoman-Regular, 'Myriad Variable Concept';
        font-size: 26px;
        font-variation-settings: 'wght' 400, 'wdth' 100;
      }

      .cls-5, .cls-6 {
        fill: #231815;
      }

      .cls-7 {
        fill: #898989;
      }
    </style>
  </defs>
  <g id="_레이어_1-2" data-name="레이어 1">
    <g>
      <g>
        <g>
          <rect class="cls-1" width="157.12" height="114.87"/>
          <rect class="cls-3" width="157.12" height="15.48"/>
        </g>
        <g>
          <rect class="cls-7" x="143.75" y="7.41" width="9.25" height=".66" rx=".33" ry=".33" transform="translate(247.82 118.13) rotate(-135)"/>
          <rect class="cls-7" x="143.75" y="7.41" width="9.25" height=".66" rx=".33" ry=".33" transform="translate(37.99 107.19) rotate(-45)"/>
        </g>
        <g>
          <path class="cls-7" d="m139.34,3.74h-7.14c-.29,0-.53.24-.53.54v6.59c0,.3.24.54.53.54h7.14c.29,0,.53-.24.53-.54v-6.59c0-.3-.24-.54-.53-.54Zm-.17,6.47c0,.3-.24.54-.53.54h-5.73c-.29,0-.53-.24-.53-.54v-5.28c0-.3.24-.54.53-.54h5.73c.29,0,.53.24.53.54v5.28Z"/>
          <path class="cls-7" d="m139.34,3.74h-3.91c-.29,0-.53.24-.53.54v3.58c0,.3.24.54.53.54h3.91c.29,0,.53-.24.53-.54v-3.58c0-.3-.24-.54-.53-.54Zm-.1,3.46c0,.3-.24.54-.53.54h-2.51c-.29,0-.53-.24-.53-.54v-2.26c0-.3.24-.54.53-.54h2.51c.29,0,.53.24.53.54v2.26Z"/>
        </g>
      </g>
      <rect class="cls-2" x="58.73" y="63.02" width="79.6" height="36.11" rx="17.39" ry="17.39"/>
      <text class="cls-5" transform="translate(98.53 89.99)"><tspan x="0" y="0">12</tspan></text>
      <g>
        <circle class="cls-4" cx="78.04" cy="81.07" r="15"/>
        <path class="cls-6" d="m83.99,87.06c-.18-.27-.48-.43-.8-.44-4.89-.16-8.92-3.57-9.11-7.89-.07-1.52.36-2.97,1.14-4.23.2-.33.22-.74.01-1.07l-.03-.05c-.35-.44-.9-.56-1.38-.27-4.25,2.56-6.78,8.39-5.18,11.98,2.37,5.33,8.65,6.08,14.6,3.81.15-.06.38-.16.51-.27.42-.38.5-.66.38-1.26l-.13-.3Z"/>
      </g>
    </g>
  </g>
</svg>