<?xml version="1.0" encoding="UTF-8"?>
<svg id="_레이어_2" data-name="레이어 2" xmlns="http://www.w3.org/2000/svg" viewBox="0 0 125.29 78.5">
  <defs>
    <style>
      .cls-1 {
        fill: #f7f8f8;
      }

      .cls-1, .cls-2, .cls-3 {
        stroke: #898989;
        stroke-miterlimit: 10;
        stroke-width: .5px;
      }

      .cls-4 {
        fill: #844195;
      }

      .cls-5 {
        fill: #898989;
      }

      .cls-2 {
        fill: #fff;
      }

      .cls-6 {
        fill: #ddf0f3;
      }

      .cls-3 {
        fill: #dcdddd;
      }

      .cls-7 {
        fill: #f9b700;
      }
    </style>
  </defs>
  <g id="_레이어_1-2" data-name="레이어 1">
    <g>
      <rect class="cls-1" x=".25" y=".25" width="124.79" height="78"/>
      <rect class="cls-3" x=".25" y=".25" width="124.79" height="10.51"/>
      <g>
        <rect class="cls-5" x="114.85" y="5.39" width="6.36" height=".45" rx=".23" ry=".23" transform="translate(197.52 93.06) rotate(-135)"/>
        <rect class="cls-5" x="114.85" y="5.39" width="6.36" height=".45" rx=".23" ry=".23" transform="translate(30.6 85.11) rotate(-45)"/>
      </g>
      <g>
        <path class="cls-5" d="m111.82,2.87h-4.91c-.2,0-.37.17-.37.37v4.53c0,.2.16.37.37.37h4.91c.2,0,.37-.17.37-.37V3.24c0-.2-.16-.37-.37-.37Zm-.12,4.45c0,.2-.16.37-.37.37h-3.94c-.2,0-.37-.17-.37-.37v-3.63c0-.2.16-.37.37-.37h3.94c.2,0,.37.17.37.37v3.63Z"/>
        <path class="cls-5" d="m111.82,2.87h-2.69c-.2,0-.37.17-.37.37v2.46c0,.2.16.37.37.37h2.69c.2,0,.37-.17.37-.37v-2.46c0-.2-.16-.37-.37-.37Zm-.07,2.38c0,.2-.16.37-.37.37h-1.72c-.2,0-.37-.17-.37-.37v-1.56c0-.2.16-.37.37-.37h1.72c.2,0,.37.17.37.37v1.56Z"/>
      </g>
      <rect class="cls-2" x="62.19" y="10.76" width="62.85" height="67.48"/>
      <g>
        <rect class="cls-6" x="69.3" y="36.86" width="14.11" height="14.11" rx="7.01" ry="7.01"/>
        <rect class="cls-6" x="88.7" y="36.98" width="29.23" height="5.17" rx="2.57" ry="2.57"/>
        <rect class="cls-6" x="88.7" y="45.37" width="29.23" height="5.17" rx="2.57" ry="2.57"/>
      </g>
      <g>
        <rect class="cls-6" x="69.3" y="17.18" width="14.11" height="14.11" rx="7.01" ry="7.01"/>
        <rect class="cls-6" x="88.7" y="17.29" width="29.23" height="5.17" rx="2.57" ry="2.57"/>
        <rect class="cls-6" x="88.7" y="25.69" width="29.23" height="5.17" rx="2.57" ry="2.57"/>
      </g>
      <g>
        <rect class="cls-6" x="69.3" y="56.54" width="14.11" height="14.11" rx="7.01" ry="7.01"/>
        <rect class="cls-6" x="88.7" y="56.66" width="29.23" height="5.17" rx="2.57" ry="2.57"/>
        <rect class="cls-6" x="88.7" y="65.06" width="29.23" height="5.17" rx="2.57" ry="2.57"/>
      </g>
      <g>
        <rect class="cls-7" x="55" y="38.63" width="31.68" height="11.09" rx="3.81" ry="3.81"/>
        <rect class="cls-4" x="90.73" y="26.55" width="31.68" height="11.09" rx="3.81" ry="3.81"/>
        <polygon class="cls-4" points="100.31 43.63 100.31 36.42 107.49 36.42 100.31 43.63"/>
        <polygon class="cls-7" points="75.57 55.71 75.57 48.5 68.39 48.5 75.57 55.71"/>
      </g>
    </g>
  </g>
</svg>