<?xml version="1.0" encoding="UTF-8"?>
<svg id="_레이어_2" data-name="레이어 2" xmlns="http://www.w3.org/2000/svg" viewBox="0 0 27.74 27.74">
  <defs>
    <style>
      .cls-1 {
        fill: none;
      }

      .cls-2 {
        fill: #d8605f;
      }
    </style>
  </defs>
  <g id="_레이어_1-2" data-name="레이어 1">
    <g>
      <path class="cls-2" d="m22.32,3.49c-2.15-.99-5.33-.96-8.42,2.85h0s-.02.01-.03.02c0-.01-.02-.02-.03-.03h0c-3.09-3.8-6.27-3.83-8.42-2.84C2.67,4.75-.05,8.93,3.18,14.96c2.28,4.27,10.36,9.7,10.66,9.83h0s0,0,0,0c0,0,.02,0,.02,0,0,0,0,0,0,0,0,0,0,0,0,0,0,0,.01,0,.02,0,0,0,0,0,0,0h0c.3-.13,8.38-5.56,10.66-9.83,3.23-6.03.51-10.21-2.25-11.48Z"/>
      <rect class="cls-1" width="27.74" height="27.74"/>
    </g>
  </g>
</svg>