<?xml version="1.0" encoding="UTF-8"?>
<svg id="_레이어_2" data-name="레이어 2" xmlns="http://www.w3.org/2000/svg" viewBox="0 0 27.74 27.74">
  <defs>
    <style>
      .cls-1 {
        fill: none;
      }
    </style>
  </defs>
  <g id="_레이어_1-2" data-name="레이어 1">
    <g>
      <path d="m18.37,12.3c-1.72-2.94-3.21-6.01-4.19-9.29l-.31-1.05-.31,1.05c-.98,3.28-2.47,6.35-4.19,9.29-1.99-1.66-4.68-2.37-4.68-2.37l1.7,5.34c.33,1.05.44,2.15.44,3.26h0c0,4,3.15,7.22,7.04,7.26,3.89-.03,7.04-3.26,7.04-7.24h0c0-1.12.1-2.22.44-3.27l1.7-5.34s-2.68.7-4.68,2.37Zm-4.5,9.95c-1.44,0-2.61-1.69-2.61-3.77s1.17-3.77,2.61-3.77,2.61,1.69,2.61,3.77-1.17,3.77-2.61,3.77Z"/>
      <rect class="cls-1" width="27.74" height="27.74"/>
    </g>
  </g>
</svg>