<?xml version="1.0" encoding="UTF-8"?>
<svg id="_레이어_2" data-name="레이어 2" xmlns="http://www.w3.org/2000/svg" viewBox="0 0 16.17 16.17">
  <defs>
    <style>
      .cls-1 {
        fill: #231815;
      }
    </style>
  </defs>
  <g id="_레이어_1-2" data-name="레이어 1">
    <g>
      <path class="cls-1" d="m11.24,8.25l-2.95-3.76c-.11-.14-.29-.14-.41,0l-2.95,3.76c-.18.23-.05.62.2.62h1.51s0,2.38,0,2.38c0,.29.19.53.41.53h2.06c.23,0,.41-.24.41-.53v-2.39h1.51c.26,0,.38-.4.2-.63Z"/>
      <path d="m14.82,0H1.36C.61,0,0,.61,0,1.36v13.46c0,.75.61,1.36,1.36,1.36h13.46c.75,0,1.36-.61,1.36-1.36V1.36c0-.75-.61-1.36-1.36-1.36Zm-.68,13.5c0,.35-.29.64-.64.64H2.68c-.35,0-.64-.29-.64-.64V2.68c0-.35.29-.64.64-.64h10.82c.35,0,.64.29.64.64v10.82Z"/>
    </g>
  </g>
</svg>