<?xml version="1.0" encoding="UTF-8"?>
<svg id="_레이어_2" data-name="레이어 2" xmlns="http://www.w3.org/2000/svg" viewBox="0 0 16.17 16.17">
  <defs>
    <style>
      .cls-1 {
        fill: #231815;
      }
    </style>
  </defs>
  <g id="_레이어_1-2" data-name="레이어 1">
    <g>
      <g>
        <path class="cls-1" d="m9.03,3.75h0c.9,0,1.63.73,1.63,1.63v5.16h-3.26v-5.16c0-.9.73-1.63,1.63-1.63Z" transform="translate(7.7 -4.29) rotate(45)"/>
        <path class="cls-1" d="m7.37,11.11l-2.31-2.31-.75,2.26c-.2.59.21,1,.8.8l2.26-.75Z"/>
      </g>
      <path d="m14.82,0H1.36C.61,0,0,.61,0,1.36v13.46c0,.75.61,1.36,1.36,1.36h13.46c.75,0,1.36-.61,1.36-1.36V1.36c0-.75-.61-1.36-1.36-1.36Zm-.68,13.5c0,.35-.29.64-.64.64H2.68c-.35,0-.64-.29-.64-.64V2.68c0-.35.29-.64.64-.64h10.82c.35,0,.64.29.64.64v10.82Z"/>
    </g>
  </g>
</svg>