<?xml version="1.0" encoding="UTF-8"?>
<svg id="_레이어_2" data-name="레이어 2" xmlns="http://www.w3.org/2000/svg" viewBox="0 0 382.83 382.83">
  <defs>
    <style>
      .cls-1 {
        fill: none;
        stroke: #231815;
        stroke-miterlimit: 10;
        stroke-width: 20px;
      }

      .cls-2 {
        fill: #231815;
      }
    </style>
  </defs>
  <g id="_레이어_1-2" data-name="레이어 1">
    <g>
      <circle class="cls-1" cx="191.42" cy="191.42" r="181.42"/>
      <path class="cls-2" d="m263.34,263.81c-2.12-3.3-5.76-5.21-9.68-5.34-59.13-1.97-107.92-43.23-110.22-95.4-.81-18.38,4.33-35.88,13.82-51.2,2.48-4,2.68-8.99.14-12.95l-.38-.6c-4.23-5.28-10.88-6.8-16.72-3.3-51.45,30.91-81.95,101.51-62.65,144.88,28.7,64.47,104.62,73.48,176.55,46.09,1.86-.71,4.65-1.99,6.12-3.32,5.03-4.54,5.99-7.99,4.62-15.23l-1.6-3.66Z"/>
    </g>
  </g>
</svg>