<?xml version="1.0" encoding="UTF-8"?>
<svg id="_레이어_2" data-name="레이어 2" xmlns="http://www.w3.org/2000/svg" viewBox="0 0 102.05 34.02">
  <defs>
    <style>
      .cls-1 {
        stroke: #231815;
        stroke-miterlimit: 10;
      }

      .cls-1, .cls-2 {
        fill: none;
      }

      .cls-3 {
        font-family: H2hdrM, HYHeadLine-Medium;
        font-size: 17px;
      }

      .cls-3, .cls-4 {
        fill: #231815;
      }
    </style>
  </defs>
  <g id="_레이어_1-2" data-name="레이어 1">
    <g>
      <g>
        <g>
          <circle class="cls-1" cx="21.22" cy="17.01" r="15"/>
          <path class="cls-4" d="m27.17,22.99c-.18-.27-.48-.43-.8-.44-4.89-.16-8.92-3.57-9.11-7.89-.07-1.52.36-2.97,1.14-4.23.2-.33.22-.74.01-1.07l-.03-.05c-.35-.44-.9-.56-1.38-.27-4.25,2.56-6.78,8.39-5.18,11.98,2.37,5.33,8.65,6.08,14.6,3.81.15-.06.38-.16.51-.27.42-.38.5-.66.38-1.26l-.13-.3Z"/>
        </g>
        <text class="cls-3" transform="translate(40.17 22.52)"><tspan x="0" y="0">corner</tspan></text>
      </g>
      <rect class="cls-2" x="0" y="0" width="102.05" height="34.02"/>
    </g>
  </g>
</svg>