<?xml version="1.0" encoding="UTF-8"?>
<svg id="_레이어_2" data-name="레이어 2" xmlns="http://www.w3.org/2000/svg" viewBox="0 0 17.59 17.59">
  <defs>
    <style>
      .cls-1 {
        fill: #231815;
      }
    </style>
  </defs>
  <g id="_레이어_1-2" data-name="레이어 1">
    <g>
      <g>
        <path class="cls-1" d="m7.78,4.59h3.89v5.14c0,.91-.74,1.65-1.65,1.65h-.59c-.91,0-1.65-.74-1.65-1.65v-5.14h0Z" transform="translate(10.45 20.55) rotate(-132.73)"/>
        <path class="cls-1" d="m5.48,9.26l2.64,2.86-2.42.51c-.63.13-1.1-.38-.92-.99l.7-2.37Z"/>
      </g>
      <path d="m15.41,0H2.18C.98,0,0,.98,0,2.18v13.22c0,1.21.98,2.18,2.18,2.18h13.22c1.21,0,2.18-.98,2.18-2.18V2.18c0-1.21-.98-2.18-2.18-2.18Zm-.6,12.63c0,1.21-.98,2.18-2.18,2.18h-7.67c-1.21,0-2.18-.98-2.18-2.18v-7.67c0-1.21.98-2.18,2.18-2.18h7.67c1.21,0,2.18.98,2.18,2.18v7.67Z"/>
    </g>
  </g>
</svg>