<?xml version="1.0" encoding="UTF-8"?>
<svg id="_레이어_2" data-name="레이어 2" xmlns="http://www.w3.org/2000/svg" viewBox="0 0 17.59 17.59">
  <defs>
    <style>
      .cls-1 {
        fill: #231815;
      }
    </style>
  </defs>
  <g id="_레이어_1-2" data-name="레이어 1">
    <g>
      <g>
        <path class="cls-1" d="m9.08,4.59h1.05c.91,0,1.65.74,1.65,1.65v5.14h-4.35v-5.14c0-.91.74-1.65,1.65-1.65Z" transform="translate(8.46 -4.45) rotate(45)"/>
        <path class="cls-1" d="m8.33,12.34l-3.08-3.08-.5,2.51c-.13.65.42,1.2,1.07,1.07l2.51-.5Z"/>
      </g>
      <path d="m15.41,0H2.18C.98,0,0,.98,0,2.18v13.22c0,1.21.98,2.18,2.18,2.18h13.22c1.21,0,2.18-.98,2.18-2.18V2.18c0-1.21-.98-2.18-2.18-2.18Zm-.6,12.63c0,1.21-.98,2.18-2.18,2.18h-7.67c-1.21,0-2.18-.98-2.18-2.18v-7.67c0-1.21.98-2.18,2.18-2.18h7.67c1.21,0,2.18.98,2.18,2.18v7.67Z"/>
    </g>
  </g>
</svg>