<?xml version="1.0" encoding="UTF-8"?>
<svg id="_레이어_2" data-name="레이어 2" xmlns="http://www.w3.org/2000/svg" viewBox="0 0 16.17 16.17">
  <defs>
    <style>
      .cls-1 {
        fill: #231815;
      }
    </style>
  </defs>
  <g id="_레이어_1-2" data-name="레이어 1">
    <g>
      <g>
        <path class="cls-1" d="m7.07,3.89h3.89v5.14c0,.91-.74,1.65-1.65,1.65h-.59c-.91,0-1.65-.74-1.65-1.65V3.89h0Z" transform="translate(9.78 18.84) rotate(-132.73)"/>
        <path class="cls-1" d="m4.77,8.55l2.64,2.86-2.42.51c-.63.13-1.1-.38-.92-.99l.7-2.37Z"/>
      </g>
      <path d="m14.82,0H1.36C.61,0,0,.61,0,1.36v13.46c0,.75.61,1.36,1.36,1.36h13.46c.75,0,1.36-.61,1.36-1.36V1.36c0-.75-.61-1.36-1.36-1.36Zm-.68,13.5c0,.35-.29.64-.64.64H2.68c-.35,0-.64-.29-.64-.64V2.68c0-.35.29-.64.64-.64h10.82c.35,0,.64.29.64.64v10.82Z"/>
    </g>
  </g>
</svg>