<?xml version="1.0" encoding="UTF-8"?>
<svg id="_레이어_2" data-name="레이어 2" xmlns="http://www.w3.org/2000/svg" viewBox="0 0 17.59 17.59">
  <defs>
    <style>
      .cls-1 {
        fill: #231815;
      }
    </style>
  </defs>
  <g id="_레이어_1-2" data-name="레이어 1">
    <g>
      <g>
        <path class="cls-1" d="m9.74,4.46h0c.9,0,1.63.73,1.63,1.63v5.16h-3.26v-5.16c0-.9.73-1.63,1.63-1.63Z" transform="translate(8.4 -4.59) rotate(45)"/>
        <path class="cls-1" d="m8.08,11.82l-2.31-2.31-.75,2.26c-.2.59.21,1,.8.8l2.26-.75Z"/>
      </g>
      <path d="m15.41,0H2.18C.98,0,0,.98,0,2.18v13.22c0,1.21.98,2.18,2.18,2.18h13.22c1.21,0,2.18-.98,2.18-2.18V2.18c0-1.21-.98-2.18-2.18-2.18Zm-.6,12.63c0,1.21-.98,2.18-2.18,2.18h-7.67c-1.21,0-2.18-.98-2.18-2.18v-7.67c0-1.21.98-2.18,2.18-2.18h7.67c1.21,0,2.18.98,2.18,2.18v7.67Z"/>
    </g>
  </g>
</svg>