<?xml version="1.0" encoding="UTF-8"?>
<svg id="_레이어_2" data-name="레이어 2" xmlns="http://www.w3.org/2000/svg" viewBox="0 0 16.17 16.17">
  <defs>
    <style>
      .cls-1 {
        fill: #231815;
      }
    </style>
  </defs>
  <g id="_레이어_1-2" data-name="레이어 1">
    <g>
      <path class="cls-1" d="m11.91,8.28l-3.59-4.56c-.14-.17-.36-.17-.49,0l-3.58,4.57c-.22.28-.06.76.25.76h1.83s0,2.89,0,2.89c0,.35.23.64.5.64h2.5c.28,0,.5-.29.5-.64v-2.9h1.83c.31,0,.47-.48.25-.76Z"/>
      <path d="m14.82,0H1.36C.61,0,0,.61,0,1.36v13.46c0,.75.61,1.36,1.36,1.36h13.46c.75,0,1.36-.61,1.36-1.36V1.36c0-.75-.61-1.36-1.36-1.36Zm-.68,13.5c0,.35-.29.64-.64.64H2.68c-.35,0-.64-.29-.64-.64V2.68c0-.35.29-.64.64-.64h10.82c.35,0,.64.29.64.64v10.82Z"/>
    </g>
  </g>
</svg>