<?xml version="1.0" encoding="UTF-8"?>
<svg id="_레이어_2" data-name="레이어 2" xmlns="http://www.w3.org/2000/svg" viewBox="0 0 17.59 17.59">
  <defs>
    <style>
      .cls-1 {
        fill: #231815;
      }
    </style>
  </defs>
  <g id="_레이어_1-2" data-name="레이어 1">
    <g>
      <path class="cls-1" d="m12.62,8.99l-3.59-4.56c-.14-.17-.36-.17-.49,0l-3.58,4.57c-.22.28-.06.76.25.76h1.83s0,2.89,0,2.89c0,.35.23.64.5.64h2.5c.28,0,.5-.29.5-.64v-2.9h1.83c.31,0,.47-.48.25-.76Z"/>
      <path d="m15.41,0H2.18C.98,0,0,.98,0,2.18v13.22c0,1.21.98,2.18,2.18,2.18h13.22c1.21,0,2.18-.98,2.18-2.18V2.18c0-1.21-.98-2.18-2.18-2.18Zm-.6,12.63c0,1.21-.98,2.18-2.18,2.18h-7.67c-1.21,0-2.18-.98-2.18-2.18v-7.67c0-1.21.98-2.18,2.18-2.18h7.67c1.21,0,2.18.98,2.18,2.18v7.67Z"/>
    </g>
  </g>
</svg>