<?xml version="1.0" encoding="UTF-8"?>
<svg id="_레이어_2" data-name="레이어 2" xmlns="http://www.w3.org/2000/svg" viewBox="0 0 17.59 17.59">
  <defs>
    <style>
      .cls-1 {
        fill: #231815;
      }
    </style>
  </defs>
  <g id="_레이어_1-2" data-name="레이어 1">
    <g>
      <path class="cls-1" d="m11.9,8.99l-2.91-4.56c-.11-.17-.29-.17-.4,0l-2.91,4.57c-.18.28-.05.76.2.76h1.49s0,2.89,0,2.89c0,.35.18.64.41.64h2.03c.23,0,.41-.29.41-.64v-2.9h1.49c.25,0,.38-.48.2-.76Z"/>
      <path d="m15.41,0H2.18C.98,0,0,.98,0,2.18v13.22c0,1.21.98,2.18,2.18,2.18h13.22c1.21,0,2.18-.98,2.18-2.18V2.18c0-1.21-.98-2.18-2.18-2.18Zm-.6,12.63c0,1.21-.98,2.18-2.18,2.18h-7.67c-1.21,0-2.18-.98-2.18-2.18v-7.67c0-1.21.98-2.18,2.18-2.18h7.67c1.21,0,2.18.98,2.18,2.18v7.67Z"/>
    </g>
  </g>
</svg>